<svg width="120" height="120" viewBox="0 0 120 120" fill="none" xmlns="http://www.w3.org/2000/svg">
<g clip-path="url(#clip0_108_10)">
<rect x="10" y="10" width="100" height="100" rx="50" fill="#D9D9D9"/>
<path d="M60.232 28.144C62.3653 28.144 63.9013 28.8693 64.84 30.32C65.864 31.6853 66.376 33.4773 66.376 35.696C66.376 37.8293 65.48 41.2 63.688 45.808C61.896 50.416 59.6347 55.664 56.904 61.552C54.1733 67.44 52.296 71.7493 51.272 74.48C51.6987 73.968 53.1493 72.0907 55.624 68.848C58.184 65.52 59.8053 63.4293 60.488 62.576C61.256 61.6373 62.8773 59.632 65.352 56.56C67.912 53.4027 69.7467 51.2267 70.856 50.032C71.9653 48.752 73.7573 46.7467 76.232 44.016C78.7067 41.2 80.712 39.0667 82.248 37.616C83.784 36.1653 85.7467 34.288 88.136 31.984C90.6107 29.5947 92.8293 27.632 94.792 26.096C99.7413 22.1707 104.264 19.0133 108.36 16.624C112.541 14.2347 115.187 13.04 116.296 13.04C116.637 13.04 116.808 13.296 116.808 13.808C116.808 13.9787 116.296 14.3627 115.272 14.96C113.736 15.8133 111.859 16.88 109.64 18.16C102.301 22.768 94.7067 29.04 86.856 36.976C79.0053 44.8267 72.5627 52.1227 67.528 58.864C62.4933 65.52 57.8427 71.8347 53.576 77.808C49.3093 83.7813 46.792 87.152 46.024 87.92C45.256 88.688 44.104 89.072 42.568 89.072C42.056 89.072 41.6293 88.56 41.288 87.536C40.9467 86.512 40.776 85.5733 40.776 84.72C40.776 79.2587 44.0187 69.104 50.504 54.256C55.112 42.992 57.416 36.3787 57.416 34.416C57.416 32.4533 56.4773 31.472 54.6 31.472C52.552 31.472 49.736 32.6667 46.152 35.056C45.384 35.568 44.872 35.824 44.616 35.824C44.4453 35.824 44.36 35.6533 44.36 35.312C44.36 34.9707 44.616 34.6293 45.128 34.288C50.5893 30.192 55.624 28.144 60.232 28.144Z" fill="#DBC025"/>
</g>
<defs>
<clipPath id="clip0_108_10">
<rect width="120" height="120" fill="white"/>
</clipPath>
</defs>
</svg>
