<svg width="452" height="81" viewBox="0 0 452 81" fill="none" xmlns="http://www.w3.org/2000/svg">
<path d="M15.408 62.392C26.496 47.16 40.104 32.768 56.232 19.216C66.648 10.424 75.328 4.544 82.272 1.576C83.392 1.128 84.176 0.903996 84.624 0.903996C85.072 0.903996 85.296 1.072 85.296 1.40799C85.296 1.52 84.176 2.164 81.936 3.33999C79.752 4.46 78.044 5.384 76.812 6.112C75.58 6.784 73.032 8.548 69.168 11.404C65.304 14.26 61.216 17.592 56.904 21.4C39.992 36.464 25.936 52.06 14.736 68.188C14.232 68.916 13.868 69.448 13.644 69.784C13.42 70.064 13.168 70.4 12.888 70.792C12.664 71.128 12.496 71.38 12.384 71.548C12.328 71.66 12.244 71.8 12.132 71.968C12.02 72.136 11.936 72.276 11.88 72.388C11.824 72.5 11.74 72.64 11.628 72.808C11.404 73.144 11.152 73.592 10.872 74.152C10.592 74.656 10.256 75.048 9.864 75.328C9.528 75.608 9.192 75.832 8.856 76C8.52 76.224 8.072 76.476 7.512 76.756L6.336 77.344C3.984 78.352 2.416 78.856 1.632 78.856C0.848001 78.856 0.456001 78.464 0.456001 77.68C0.456001 76.896 0.904001 75.552 1.8 73.648C2.752 71.688 3.984 69.42 5.496 66.844C7.008 64.268 7.96 62.56 8.352 61.72C18.656 40.216 23.808 23.92 23.808 12.832C23.808 10.088 23.304 8.044 22.296 6.7C21.288 5.3 19.944 4.6 18.264 4.6C14.12 4.6 10.144 6.504 6.336 10.312C5.216 11.432 4.6 11.992 4.488 11.992C4.152 11.992 3.984 11.824 3.984 11.488C3.984 11.152 4.6 10.368 5.832 9.13599C8.296 6.55999 11.012 4.656 13.98 3.424C16.948 2.192 19.44 1.576 21.456 1.576C24.704 1.576 27.14 2.724 28.764 5.02C30.388 7.26 31.2 9.91999 31.2 13C31.2 22.52 25.936 38.984 15.408 62.392ZM46.8214 65.248L43.4614 67.936C43.3494 67.936 43.2934 67.824 43.2934 67.6C43.2934 67.376 43.4894 67.068 43.8814 66.676C44.2734 66.284 45.3654 65.416 47.1574 64.072C48.4454 60.04 50.3774 56.232 52.9534 52.648C55.5294 49.064 58.1614 46.18 60.8494 43.996C63.5374 41.756 66.0854 40.02 68.4934 38.788C70.9014 37.5 72.8054 36.856 74.2054 36.856C77.1174 36.856 78.5734 37.976 78.5734 40.216C78.5734 41.056 78.2654 41.924 77.6494 42.82C77.0334 43.66 75.8854 44.724 74.2054 46.012C72.5814 47.3 71.0134 48.476 69.5014 49.54C68.0454 50.548 65.6934 52.144 62.4454 54.328C59.2534 56.512 56.5094 58.416 54.2134 60.04C53.2054 62.896 52.7014 65.556 52.7014 68.02C52.7014 70.428 53.3454 72.22 54.6334 73.396C55.9774 74.572 58.1894 75.16 61.2694 75.16C64.4054 75.16 67.9894 74.068 72.0214 71.884C76.1094 69.7 79.9734 67.04 83.6134 63.904C87.2534 60.712 89.9414 57.8 91.6774 55.168C91.9014 54.832 92.1254 54.664 92.3494 54.664C92.5734 54.664 92.6854 54.748 92.6854 54.916C92.6854 55.084 92.6294 55.28 92.5174 55.504C86.3014 63.568 78.7974 69.84 70.0054 74.32C65.7494 76.336 61.6054 77.344 57.5734 77.344C49.9574 77.344 46.1494 74.712 46.1494 69.448C46.1494 68.664 46.3734 67.264 46.8214 65.248ZM54.8854 58.528C61.4934 53.768 66.1974 50.1 68.9974 47.524C71.7974 44.892 73.1974 42.848 73.1974 41.392C73.1974 39.936 72.5814 39.208 71.3494 39.208C68.6054 39.208 65.6654 41.196 62.5294 45.172C59.3934 49.092 56.8454 53.544 54.8854 58.528ZM95.5073 40.048C93.5473 40.048 91.3073 40.888 88.7873 42.568C88.2833 42.904 87.9473 43.072 87.7793 43.072C87.6673 43.072 87.6113 42.96 87.6113 42.736C87.6113 42.512 87.7793 42.288 88.1153 42.064C91.9793 39.152 95.5073 37.696 98.6993 37.696C100.099 37.696 101.191 38.088 101.975 38.872C102.815 39.656 103.235 40.636 103.235 41.812C103.235 42.988 102.115 45.592 99.8753 49.624C108.891 41.896 115.891 38.032 120.875 38.032C122.611 38.032 123.843 38.648 124.571 39.88C125.355 41.056 125.747 42.568 125.747 44.416C125.747 46.208 123.843 50.604 120.035 57.604C116.227 64.604 114.323 69.112 114.323 71.128C114.323 72.024 114.575 72.78 115.079 73.396C115.583 74.012 116.227 74.32 117.011 74.32C121.995 74.32 128.099 71.184 135.323 64.912C137.227 63.232 139.047 61.44 140.783 59.536C142.575 57.632 143.667 56.344 144.059 55.672C144.507 55 144.843 54.664 145.067 54.664C145.291 54.664 145.403 54.748 145.403 54.916C145.403 55.084 145.347 55.28 145.235 55.504C143.219 58.192 140.167 61.552 136.079 65.584C132.047 69.56 127.847 72.584 123.479 74.656C119.167 76.672 115.555 77.68 112.643 77.68C109.731 77.68 108.275 76.392 108.275 73.816C108.275 71.52 109.227 68.468 111.131 64.66C113.035 60.796 114.939 57.072 116.843 53.488C118.747 49.904 119.699 47.216 119.699 45.424C119.699 42.624 118.635 41.224 116.507 41.224C114.547 41.224 111.131 42.988 106.259 46.516C101.443 49.988 98.8113 52.144 98.3633 52.984L86.0993 75.328C85.8193 75.776 85.2873 76.056 84.5033 76.168C83.7753 76.336 82.9913 76.56 82.1513 76.84C81.3673 77.176 80.8353 77.344 80.5553 77.344C79.8833 77.344 79.5473 77.064 79.5473 76.504C79.5473 76.28 81.1713 73.424 84.4193 67.936C93.1553 52.928 97.5233 44.36 97.5233 42.232C97.5233 40.776 96.8513 40.048 95.5073 40.048ZM140.525 43.072C140.413 43.072 140.357 42.96 140.357 42.736C140.357 42.512 140.497 42.288 140.777 42.064C141.617 41.504 142.457 40.916 143.297 40.3C144.193 39.684 147.693 38.872 153.797 37.864L167.405 12.664C168.077 11.264 169.029 10.004 170.261 8.884C171.381 7.708 172.501 7.12 173.621 7.12C173.677 7.12 173.761 7.12 173.873 7.12C174.825 7.12 175.301 7.344 175.301 7.792C175.301 8.24 173.901 10.844 171.101 15.604C168.301 20.364 164.437 27.504 159.509 37.024L175.301 34.504C175.637 34.504 175.805 34.56 175.805 34.672C175.805 35.008 175.385 35.428 174.545 35.932C173.761 36.436 173.145 36.688 172.697 36.688C172.249 36.688 167.517 37.416 158.501 38.872L150.437 55.672C147.413 62.392 145.901 66.76 145.901 68.776C145.901 70.792 146.489 72.444 147.665 73.732C148.841 75.02 150.325 75.664 152.117 75.664C156.485 75.664 160.069 74.88 162.869 73.312C165.725 71.744 168.693 69.588 171.773 66.844C174.909 64.1 177.429 61.664 179.333 59.536C181.293 57.352 182.441 56.008 182.777 55.504C183.169 54.944 183.477 54.664 183.701 54.664C183.925 54.664 184.037 54.748 184.037 54.916C184.037 55.084 183.981 55.28 183.869 55.504C181.181 59.032 178.381 62.196 175.469 64.996C172.557 67.74 170.009 69.924 167.825 71.548C165.697 73.172 163.009 74.572 159.761 75.748C156.569 76.924 153.321 77.512 150.017 77.512C146.769 77.512 144.193 76.784 142.289 75.328C140.441 73.872 139.517 71.576 139.517 68.44C139.517 65.304 141.141 60.88 144.389 55.168L152.453 40.216C145.397 41.616 141.673 42.456 141.281 42.736C140.945 42.96 140.693 43.072 140.525 43.072ZM206.714 42.4L206.21 42.232C206.21 43.408 206.658 44.528 207.554 45.592C208.506 46.6 209.626 47.272 210.914 47.608C211.026 46.88 211.082 45.956 211.082 44.836C211.082 44.556 211.082 44.248 211.082 43.912C211.082 42.344 210.606 40.692 209.654 38.956C208.702 37.22 207.946 36.352 207.386 36.352C206.602 36.352 206.21 37.472 206.21 39.712C206.546 39.824 206.882 40.048 207.218 40.384C207.554 40.72 207.722 41.028 207.722 41.308C207.722 41.588 207.582 41.84 207.302 42.064C207.022 42.288 206.826 42.4 206.714 42.4ZM210.578 49.12C208.338 49.008 206.322 48.14 204.53 46.516C202.794 44.892 201.842 42.96 201.674 40.72C198.37 40.72 195.01 42.26 191.594 45.34C188.234 48.42 185.518 52.172 183.446 56.596C181.374 61.02 180.338 65.192 180.338 69.112C180.338 70.624 180.786 72.052 181.682 73.396C182.634 74.684 183.978 75.328 185.714 75.328C190.754 75.328 195.822 72.528 200.918 66.928C206.07 61.328 209.29 55.392 210.578 49.12ZM225.446 41.56C225.614 41.56 225.698 41.672 225.698 41.896C225.698 42.12 225.502 42.344 225.11 42.568C224.774 42.792 224.074 43.296 223.01 44.08C222.002 44.808 221.162 45.396 220.49 45.844C219.874 46.236 219.062 46.712 218.054 47.272C216.094 48.336 214.162 48.952 212.258 49.12C210.858 56.288 207.274 62.812 201.506 68.692C195.794 74.572 189.802 77.512 183.53 77.512C177.258 77.512 174.122 74.656 174.122 68.944C174.122 64.352 175.466 59.704 178.154 55C180.898 50.296 184.426 46.432 188.738 43.408C193.05 40.384 197.362 38.872 201.674 38.872C201.786 37.472 202.206 36.1 202.934 34.756C203.662 33.356 204.698 32.656 206.042 32.656C208.114 32.656 209.738 33.692 210.914 35.764C212.146 37.836 212.762 40.496 212.762 43.744C212.762 44.64 212.65 45.984 212.426 47.776C214.946 47.776 218.978 45.872 224.522 42.064C225.026 41.728 225.334 41.56 225.446 41.56ZM251.077 1.40799C258.133 1.40799 261.661 4.544 261.661 10.816C261.661 13.28 260.961 16.024 259.561 19.048C258.217 22.072 257.013 24.592 255.949 26.608C254.941 28.568 253.373 31.396 251.245 35.092C249.117 38.788 247.185 42.092 245.449 45.004C240.353 53.516 234.893 62.728 229.069 72.64C236.685 65.192 244.917 58.864 253.765 53.656C259.309 50.408 263.789 48.784 267.205 48.784C269.109 48.784 270.397 49.008 271.069 49.456C271.797 49.904 272.273 50.212 272.497 50.38C272.721 50.548 272.945 50.828 273.169 51.22C273.449 51.556 273.645 51.808 273.757 51.976C273.869 52.144 274.009 52.452 274.177 52.9C274.345 53.348 274.429 53.628 274.429 53.74C274.485 53.852 274.709 54.636 275.101 56.092C275.549 57.492 276.053 59.424 276.613 61.888C277.173 64.296 277.593 66.228 277.873 67.684C278.209 69.14 278.657 70.68 279.217 72.304C279.777 73.872 280.393 75.104 281.065 76C282.577 78.016 285.041 79.024 288.457 79.024C291.873 79.024 295.121 77.96 298.201 75.832C301.281 73.648 303.717 71.016 305.509 67.936C307.301 64.8 308.813 61.384 310.045 57.688C312.061 51.36 313.069 45.704 313.069 40.72C313.069 34.56 312.005 28.372 309.877 22.156C308.645 18.572 307.105 15.38 305.257 12.58C303.465 9.724 301.001 7.344 297.865 5.44C294.785 3.536 291.257 2.584 287.281 2.584C283.305 2.584 280.085 3.368 277.621 4.936C276.893 5.384 276.109 5.608 275.269 5.608C274.485 5.608 274.093 5.328 274.093 4.768C273.925 4.264 274.429 3.704 275.605 3.088C279.021 1.632 283.081 0.903996 287.785 0.903996C292.545 0.903996 296.801 1.716 300.553 3.33999C304.305 4.908 307.301 6.952 309.541 9.472C311.781 11.936 313.629 14.848 315.085 18.208C317.661 23.976 318.949 30.472 318.949 37.696C318.949 46.096 317.269 53.852 313.909 60.964C312.117 64.716 309.989 68.048 307.525 70.96C305.061 73.872 301.981 76.224 298.285 78.016C294.589 79.808 290.893 80.704 287.197 80.704C287.085 80.704 286.945 80.704 286.777 80.704C283.249 80.704 280.477 80.256 278.461 79.36C276.333 78.464 274.681 77.568 273.505 76.672C272.329 75.776 271.237 74.096 270.229 71.632C269.221 69.112 268.549 67.208 268.213 65.92C267.933 64.632 267.597 62.98 267.205 60.964C266.869 58.892 266.589 57.408 266.365 56.512C265.917 54.384 264.741 53.32 262.837 53.32C260.989 53.32 258.021 54.496 253.933 56.848C249.901 59.144 246.149 61.608 242.677 64.24C239.261 66.872 235.789 69.616 232.261 72.472C228.733 75.272 226.885 76.728 226.717 76.84C225.485 77.624 223.525 78.016 220.837 78.016C220.165 78.016 219.829 77.568 219.829 76.672C219.829 76.336 220.361 75.104 221.425 72.976C222.545 70.848 225.849 64.996 231.337 55.42C236.881 45.788 240.577 39.376 242.425 36.184C244.273 32.992 245.981 29.968 247.549 27.112C249.117 24.256 250.601 21.176 252.001 17.872C253.401 14.568 254.101 12.132 254.101 10.564C254.101 8.94 253.513 7.54 252.337 6.364C251.161 5.188 249.453 4.6 247.213 4.6C243.069 4.6 239.093 6.504 235.285 10.312C234.165 11.432 233.549 11.992 233.437 11.992C233.101 11.992 232.933 11.824 232.933 11.488C232.933 11.152 233.549 10.368 234.781 9.13599C237.301 6.504 240.045 4.572 243.013 3.33999C246.037 2.05199 248.725 1.40799 251.077 1.40799ZM320.642 65.248L317.282 67.936C317.17 67.936 317.114 67.824 317.114 67.6C317.114 67.376 317.31 67.068 317.702 66.676C318.094 66.284 319.186 65.416 320.978 64.072C322.266 60.04 324.198 56.232 326.774 52.648C329.35 49.064 331.982 46.18 334.67 43.996C337.358 41.756 339.906 40.02 342.314 38.788C344.722 37.5 346.626 36.856 348.026 36.856C350.938 36.856 352.394 37.976 352.394 40.216C352.394 41.056 352.086 41.924 351.47 42.82C350.854 43.66 349.706 44.724 348.026 46.012C346.402 47.3 344.834 48.476 343.322 49.54C341.866 50.548 339.514 52.144 336.266 54.328C333.074 56.512 330.33 58.416 328.034 60.04C327.026 62.896 326.522 65.556 326.522 68.02C326.522 70.428 327.166 72.22 328.454 73.396C329.798 74.572 332.01 75.16 335.09 75.16C338.226 75.16 341.81 74.068 345.842 71.884C349.93 69.7 353.794 67.04 357.434 63.904C361.074 60.712 363.762 57.8 365.498 55.168C365.722 54.832 365.946 54.664 366.17 54.664C366.394 54.664 366.506 54.748 366.506 54.916C366.506 55.084 366.45 55.28 366.338 55.504C360.122 63.568 352.618 69.84 343.826 74.32C339.57 76.336 335.426 77.344 331.394 77.344C323.778 77.344 319.97 74.712 319.97 69.448C319.97 68.664 320.194 67.264 320.642 65.248ZM328.706 58.528C335.314 53.768 340.018 50.1 342.818 47.524C345.618 44.892 347.018 42.848 347.018 41.392C347.018 39.936 346.402 39.208 345.17 39.208C342.426 39.208 339.486 41.196 336.35 45.172C333.214 49.092 330.666 53.544 328.706 58.528ZM387.808 61.888C393.52 56.176 396.376 52.368 396.376 50.464C396.376 50.016 396.152 49.792 395.704 49.792C394.584 49.792 391.952 53.824 387.808 61.888ZM386.128 39.208C382.6 39.208 378.988 40.776 375.292 43.912C371.652 47.048 368.712 50.8 366.472 55.168C364.232 59.536 363.112 63.624 363.112 67.432C363.112 71.24 364.68 73.144 367.816 73.144C371.288 73.144 375.152 71.576 379.408 68.44C380.584 64.296 382.992 59.76 386.632 54.832C389.992 50.072 392.792 47.272 395.032 46.432C393.128 41.616 390.16 39.208 386.128 39.208ZM385.792 37.192C391.168 37.192 394.696 40.16 396.376 46.096C397.832 46.096 398.56 46.712 398.56 47.944C398.56 49.456 398.308 50.716 397.804 51.724C397.3 52.676 396.908 53.404 396.628 53.908C396.404 54.356 395.984 54.944 395.368 55.672C394.696 56.4 394.248 56.904 394.024 57.184C391.728 59.76 389.32 62.168 386.8 64.408C385.904 67.32 385.456 69.28 385.456 70.288C385.456 72.64 387.332 73.816 391.084 73.816C394.836 73.816 399.484 71.576 405.028 67.096C410.628 62.616 414.576 58.64 416.872 55.168C417.096 54.832 417.32 54.664 417.544 54.664C417.768 54.664 417.88 54.748 417.88 54.916C417.88 55.084 417.824 55.28 417.712 55.504C414.688 59.536 411.664 62.868 408.64 65.5C405.672 68.132 402.004 70.708 397.636 73.228C393.324 75.748 389.376 77.008 385.792 77.008C381.312 77.008 379.072 75.216 379.072 71.632C379.072 71.464 379.1 71.212 379.156 70.876C379.212 70.54 379.24 70.288 379.24 70.12C372.912 74.04 367.704 76 363.616 76C358.912 76 356.56 73.144 356.56 67.432C356.56 63.288 358.016 58.864 360.928 54.16C363.896 49.4 367.676 45.396 372.268 42.148C376.916 38.844 381.424 37.192 385.792 37.192ZM422.441 38.368C424.065 38.368 425.297 38.816 426.137 39.712C427.033 40.608 427.481 41.532 427.481 42.484C427.481 43.436 427.257 44.472 426.809 45.592C426.361 46.712 425.885 47.748 425.381 48.7C424.877 49.652 424.317 50.66 423.701 51.724C423.141 52.732 422.833 53.32 422.777 53.488C426.137 49.624 430.281 45.928 435.209 42.4C438.737 39.936 443.329 37.584 448.985 35.344C449.657 35.12 450.077 35.008 450.245 35.008C450.413 35.008 450.497 35.092 450.497 35.26C450.497 35.428 450.441 35.568 450.329 35.68C450.273 35.736 450.189 35.792 450.077 35.848C449.965 35.904 449.629 36.072 449.069 36.352C448.565 36.632 447.417 37.556 445.625 39.124C443.833 40.636 442.937 41.98 442.937 43.156C442.937 44.332 443.441 44.92 444.449 44.92C445.737 44.92 447.697 43.968 450.329 42.064C450.833 41.728 451.141 41.56 451.253 41.56C451.421 41.56 451.505 41.672 451.505 41.896C451.505 42.12 451.337 42.344 451.001 42.568C448.705 44.248 446.885 45.396 445.541 46.012C444.253 46.628 442.965 46.936 441.677 46.936C440.389 46.936 439.353 46.712 438.569 46.264C437.785 45.816 437.393 45.172 437.393 44.332C437.393 43.436 437.729 42.568 438.401 41.728C435.825 43.184 432.801 45.592 429.329 48.952C425.857 52.256 422.385 56.232 418.913 60.88C413.761 70.4 410.849 75.552 410.177 76.336C409.505 77.12 409.001 77.512 408.665 77.512C408.385 77.512 408.161 77.428 407.993 77.26C407.825 77.148 407.601 76.868 407.321 76.42C407.097 75.972 406.761 75.44 406.313 74.824C405.865 74.152 405.641 73.62 405.641 73.228C405.641 72.78 406.033 71.968 406.817 70.792C407.601 69.56 408.497 68.384 409.505 67.264C410.569 66.088 411.465 65.024 412.193 64.072C416.785 55.448 419.585 50.1 420.593 48.028C421.601 45.9 422.105 44.36 422.105 43.408C422.105 42.4 421.853 41.644 421.349 41.14C420.901 40.636 420.117 40.384 418.997 40.384C417.877 40.384 416.225 41.112 414.041 42.568C413.537 42.904 413.201 43.072 413.033 43.072C412.921 43.072 412.865 42.96 412.865 42.736C412.865 42.512 413.033 42.288 413.369 42.064C416.953 39.6 419.977 38.368 422.441 38.368Z" fill="black"/>
</svg>
